<svg width="18" height="18" viewBox="0 0 18 18" fill="none" xmlns="http://www.w3.org/2000/svg">
<path d="M8.61955 1.5C10.4815 1.5 12 2.9925 12 4.83V8.4225H7.42151C7.09339 8.4225 6.83394 8.6775 6.83394 9C6.83394 9.315 7.09339 9.5775 7.42151 9.5775H12V13.1625C12 15 10.4815 16.5 8.60429 16.5H4.88808C3.01853 16.5 1.5 15.0075 1.5 13.17V4.8375C1.5 2.9925 3.02616 1.5 4.89571 1.5H8.61955ZM13.9051 6.41265C14.1301 6.18015 14.4976 6.18015 14.7226 6.40515L16.9126 8.58765C17.0251 8.70015 17.0851 8.84265 17.0851 9.00015C17.0851 9.15015 17.0251 9.30015 16.9126 9.40515L14.7226 11.5877C14.6101 11.7002 14.4602 11.7601 14.3176 11.7601C14.1677 11.7601 14.0176 11.7002 13.9051 11.5877C13.6801 11.3626 13.6801 10.9951 13.9051 10.7702L15.1052 9.57765L12 9.5775V8.4225L15.1052 8.42265L13.9051 7.23015C13.6801 7.00515 13.6801 6.63765 13.9051 6.41265Z" fill="#E90019"/>
</svg>
